<?xml version="1.0" standalone="no"?>
<!DOCTYPE svg PUBLIC "-//W3C//DTD SVG 20010904//EN"
 "http://www.w3.org/TR/2001/REC-SVG-20010904/DTD/svg10.dtd">
<svg version="1.0" xmlns="http://www.w3.org/2000/svg"
 width="538.000000pt" height="508.000000pt" viewBox="0 0 538.000000 508.000000"
 preserveAspectRatio="xMidYMid meet">

<g transform="translate(0.000000,508.000000) scale(0.100000,-0.100000)"
fill="#000000" stroke="none">
<path d="M3000 4523 c-493 -34 -923 -149 -1339 -358 -269 -134 -444 -256 -611
-424 -346 -350 -539 -719 -569 -1087 -27 -336 75 -694 301 -1061 223 -362 646
-731 1099 -958 238 -120 433 -184 589 -192 132 -7 232 5 545 67 138 27 349 65
469 85 291 48 439 96 601 195 268 164 490 422 604 701 95 235 125 406 126 714
0 200 -3 245 -23 342 -55 271 -196 564 -344 712 -181 181 -560 356 -920 425
-386 74 -773 26 -1263 -156 -230 -85 -523 -255 -665 -386 -105 -96 -188 -263
-227 -458 -26 -133 -24 -374 5 -521 55 -275 170 -511 331 -676 148 -153 244
-199 531 -257 398 -79 770 -81 1038 -4 184 53 367 165 411 253 87 172 113 583
49 789 -38 125 -120 258 -200 327 -117 99 -402 185 -618 185 -217 0 -368 -52
-490 -167 -149 -140 -165 -265 -59 -446 74 -125 237 -263 371 -312 95 -35 101
-3 20 109 -108 149 -141 228 -128 301 25 129 272 239 481 214 149 -18 312
-134 377 -267 30 -60 33 -75 33 -157 0 -81 -3 -97 -32 -158 -75 -158 -294
-321 -488 -362 -288 -61 -684 85 -926 342 -111 119 -184 246 -235 418 -25 80
-28 106 -28 240 -1 133 2 156 22 205 61 154 166 229 597 425 223 102 387 159
504 176 120 17 388 6 516 -21 157 -34 309 -86 450 -155 154 -76 255 -149 291
-211 34 -58 78 -195 99 -309 23 -120 31 -459 16 -596 -37 -321 -159 -681 -272
-804 -112 -121 -471 -236 -894 -287 -155 -18 -555 -15 -705 5 -406 56 -684
189 -951 456 -187 187 -300 372 -377 611 -105 328 -92 724 34 1036 140 347
447 622 881 788 272 104 708 231 893 261 278 44 654 -19 1018 -171 263 -110
487 -263 801 -544 69 -61 133 -116 144 -121 110 -60 14 235 -162 498 -147 218
-304 377 -509 513 -115 77 -208 119 -343 155 -241 64 -603 97 -869 78z"/>
</g>
</svg>
